#!OML:ASF F:\VICON\USERDATA\Patient Classification 1\PLAYGROUND\JustinFriday\JustinFriday.ASF
:FULLY-SPECIFIED
:DEGREES
2722
root -21.9747 23.9126 -9.439 311.616 81.533 -60.7424
lowerback 33.2446 -0.651145 -3.24502
upperback 11.296 -0.11839 6.22747
thorax -4.6791 0.176188 8.32213
lowerneck -1.26901 -3.11251 -7.24952
upperneck 28.1082 -2.00017 -1.80765
head 9.12802 -1.50474 0.517263
rclavicle -1.78906e-015 1.10723e-013
rhumerus 65.2067 15.4884 -77.2637
rradius 59.8533
rwrist 14.72
rhand 12.7711 -17.6019
rfingers 7.12502
rthumb 37.7496 -43.4688
lclavicle -1.78906e-015 1.10723e-013
lhumerus 22.6007 -11.7339 67.6642
lradius 59.5868
lwrist -28.699
lhand -40.2028 -25.2241
lfingers 7.12502
lthumb -13.1633 4.34041
rfemur -56.989 3.71822 29.2371
rtibia 80.7433
rfoot -32.0363 0.684666
rtoes 33.1665
lfemur -19.4511 -1.20595 -13.1506
ltibia 21.9931
lfoot 14.4668 6.80371
ltoes 13.4612
2723
root -22.0127 23.8304 -9.45569 316.493 81.6607 -55.5956
lowerback 33.3514 0.00777196 -3.85134
upperback 11.2839 0.501808 6.16418
thorax -4.82669 0.469563 8.37444
lowerneck -0.340382 -3.88661 -8.51667
upperneck 26.7308 -3.489 -0.301783
head 8.57529 -2.16076 1.14192
rclavicle 5.62561e-014 -1.66979e-014
rhumerus 65.5297 14.1935 -77.2589
rradius 59.3917
rwrist 15.6659
rhand 14.1223 -17.0433
rfingers 7.12502
rthumb 39.0248 -42.5562
lclavicle 5.62561e-014 -1.66979e-014
lhumerus 23.1577 -13.0305 67.6337
lradius 60.5314
lwrist -28.2026
lhand -39.7206 -24.6997
lfingers 7.12502
lthumb -12.6984 4.89419
rfemur -57.4997 4.08589 28.5123
rtibia 81.7692
rfoot -32.2038 0.98742
rtoes 33.3023
lfemur -19.0806 0.376426 -14.2213
ltibia 22.195
lfoot 13.0268 5.3221
ltoes 16.2963
2724
root -22.0518 23.7545 -9.50298 313.203 81.6594 -58.6066
lowerback 33.6673 -0.265821 -3.33648
upperback 11.2649 0.342536 6.23397
thorax -4.94169 0.409708 8.22198
lowerneck -0.737889 -3.73784 -8.40354
upperneck 27.1558 -3.21805 -0.373353
head 8.77999 -2.03737 1.11343
rclavicle -1.2424e-014 4.84041e-014
rhumerus 66.2702 14.0829 -75.928
rradius 59.4854
rwrist 13.763
rhand 12.3425 -18.7058
rfingers 7.12502
rthumb 37.3446 -44.6804
lclavicle -1.2424e-014 4.84041e-014
lhumerus 23.3824 -12.8838 67.8937
lradius 60.8605
lwrist -28.019
lhand -39.4895 -23.8348
lfingers 7.12502
lthumb -12.4757 5.77283
rfemur -57.7498 3.7067 28.6489
rtibia 82.5974
rfoot -32.4156 0.79949
rtoes 31.29
lfemur -18.9953 1.93946 -14.6318
ltibia 22.6405
lfoot 11.5953 1.72727
ltoes 12.6043
2725
root -22.0831 23.6624 -9.53972 309.841 81.1033 -61.2968
lowerback 34.4029 -0.61778 -3.19207
upperback 11.3629 0.00457517 6.49998
thorax -5.06078 0.251898 8.54961
lowerneck -0.414802 -3.28283 -8.73968
upperneck 26.717 -2.57185 -0.632006
head 8.54769 -1.78657 1.13663
rclavicle 3.00165e-014 2.80286e-014
rhumerus 66.8176 14.906 -76.3816
rradius 59.4181
rwrist 14.0571
rhand 13.6087 -18.589
rfingers 7.12502
rthumb 38.5404 -44.2392
lclavicle 3.00165e-014 2.80286e-014
lhumerus 22.6965 -11.5269 67.5994
lradius 61.6177
lwrist -27.3245
lhand -38.7884 -23.8738
lfingers 7.12502
lthumb -11.7996 5.77378
rfemur -57.426 3.48077 29.3023
rtibia 83.3509
rfoot -32.3931 0.269778
rtoes 27.3066
lfemur -18.348 3.01505 -14.452
ltibia 23.3237
lfoot 8.77665 -0.140172
ltoes 10.5838
2726
root -22.1226 23.5608 -9.56323 310.086 80.7251 -60.7833
lowerback 34.6297 -0.692227 -3.65312
upperback 11.3793 -0.232758 6.57642
thorax -5.08537 0.123955 8.97058
lowerneck -0.902709 -3.07071 -10.6346
upperneck 26.8165 -2.23805 0.122729
head 8.71472 -1.75418 1.73049
rclavicle -1.82882e-014 8.62725e-014
rhumerus 67.2732 15.7806 -76.9088
rradius 59.2593
rwrist 13.0897
rhand 13.1924 -18.8476
rfingers 7.12502
rthumb 38.1476 -44.6065
lclavicle -1.82882e-014 8.62725e-014
lhumerus 22.3278 -10.3095 67.5875
lradius 62.2305
lwrist -27.2353
lhand -37.5397 -24.5168
lfingers 7.12502
lthumb -10.5953 5.19613
rfemur -57.7261 3.16044 29.6509
rtibia 84.2183
rfoot -32.6695 -0.353886
rtoes 23.1549
lfemur -18.0645 2.8973 -14.411
ltibia 24.2147
lfoot 5.17261 0.138992
ltoes 10.3387
2727
root -22.1718 23.4733 -9.59054 312.172 80.9039 -58.8129
lowerback 34.4293 -0.593482 -4.31774
upperback 11.3682 -0.32001 6.72906
thorax -5.00825 0.0590264 9.53375
lowerneck -1.13793 -2.70763 -10.4442
upperneck 26.8507 -1.63039 -0.325855
head 8.73017 -1.49575 1.59152
rclavicle -2.94201e-014 2.90226e-014
rhumerus 67.8211 15.7947 -77.4529
rradius 59.1146
rwrist 14.6986
rhand 16.0392 -17.2249
rfingers 7.12502
rthumb 40.8289 -42.1954
lclavicle -2.94201e-014 2.90226e-014
lhumerus 22.4321 -9.43228 68.2713
lradius 62.6736
lwrist -27.5801
lhand -36.7412 -24.9829
lfingers 7.12502
lthumb -9.82499 4.76788
rfemur -58.5442 3.40733 29.1637
rtibia 85.1293
rfoot -33.0346 -1.14179
rtoes 20.8003
lfemur -18.3029 2.78253 -15.0767
ltibia 25.03
lfoot 1.86571 0.518364
ltoes 7.99116
2728
root -22.2264 23.3881 -9.63284 314.375 81.4168 -57.0734
lowerback 33.9208 -0.292268 -3.27524
upperback 10.9366 0.249729 5.76151
thorax -5.35927 0.381414 7.71236
lowerneck -0.267178 -3.63315 -7.86002
upperneck 27.0063 -3.13242 -0.539234
head 8.61832 -1.95667 0.979924
rclavicle 3.91606e-014 6.75868e-015
rhumerus 67.3807 12.7222 -78.8227
rradius 58.691
rwrist 15.9991
rhand 17.4256 -15.9891
rfingers 7.12502
rthumb 42.1298 -40.5355
lclavicle 3.91606e-014 6.75868e-015
lhumerus 24.077 -11.8713 67.9907
lradius 62.315
lwrist -28.0094
lhand -36.8526 -25.0444
lfingers 7.12502
lthumb -9.93244 4.70129
rfemur -59.9278 3.2301 28.3881
rtibia 86.0534
rfoot -33.1305 -2.38691
rtoes 16.9708
lfemur -19.2271 3.41307 -16.0738
ltibia 25.8603
lfoot -0.593509 0.204333
ltoes 8.16574
2729
root -22.2801 23.3252 -9.6742 313.885 81.7263 -57.7075
lowerback 33.7956 -0.136274 -1.83545
upperback 10.5971 0.785541 4.8146
thorax -5.70857 0.683924 5.7307
lowerneck -0.646459 -4.42502 -7.32313
upperneck 28.0143 -4.49592 0.864486
head 9.10237 -2.41582 1.25363
rclavicle -7.85199e-015 -2.45499e-014
rhumerus 66.8161 9.89725 -80.3783
rradius 58.3246
rwrist 17.0118
rhand 18.2909 -15.9701
rfingers 7.12502
rthumb 42.9397 -40.2373
lclavicle -7.85199e-015 -2.45499e-014
lhumerus 25.8929 -14.3651 67.8292
lradius 61.7368
lwrist -28.7163
lhand -36.8913 -24.8368
lfingers 7.12502
lthumb -9.96974 4.90706
rfemur -60.7117 2.94309 28.0207
rtibia 86.7321
rfoot -33.5952 -3.57615
rtoes 13.9391
lfemur -19.8812 4.36577 -16.594
ltibia 26.5945
lfoot -2.37942 -0.880673
ltoes 11.2366
2730
root -22.3277 23.2452 -9.69369 313.767 81.4223 -57.5608
lowerback 34.0095 0.271728 -1.00173
upperback 10.5451 1.53108 4.46703
thorax -5.88716 1.06163 4.6496
lowerneck 0.152154 -4.99876 -4.41168
upperneck 27.7721 -5.39862 0.125354
head 8.77397 -2.60702 0.458366
rclavicle 3.97569e-016 4.25896e-014
rhumerus 66.9296 8.08372 -80.5709
rradius 58.0865
rwrist 15.6778
rhand 16.6516 -17.6828
rfingers 7.12502
rthumb 41.4039 -42.4694
lclavicle 3.97569e-016 4.25896e-014
lhumerus 27.4761 -16.1097 68.1299
lradius 61.4068
lwrist -29.3604
lhand -36.6309 -24.3421
lfingers 7.12502
lthumb -9.71852 5.41363
rfemur -60.8779 3.19089 28.1677
rtibia 87.3233
rfoot -34.1766 -4.03483
rtoes 13.1428
lfemur -19.8955 4.65727 -16.6095
ltibia 27.2366
lfoot -4.0775 -0.795666
ltoes 9.43658
2731
root -22.3741 23.1657 -9.75474 309.915 81.6029 -61.4909
lowerback 33.8819 -0.0637845 0.0694931
upperback 10.4936 1.45929 4.42453
thorax -5.86451 1.04418 4.05702
lowerneck -0.431802 -5.27421 -6.66273
upperneck 27.9468 -5.89574 1.57842
head 9.09386 -2.9276 1.27605
rclavicle -7.59109e-015 -1.51698e-014
rhumerus 67.4127 7.1373 -81.3079
rradius 57.86
rwrist 16.8877
rhand 18.6934 -17.4467
rfingers 7.12502
rthumb 43.316 -41.58
lclavicle -7.59109e-015 -1.51698e-014
lhumerus 28.0134 -16.4938 68.5137
lradius 61.6763
lwrist -29.7198
lhand -36.2458 -24.1982
lfingers 7.12502
lthumb -9.34694 5.57461
rfemur -61.5459 2.35687 28.2285
rtibia 87.8958
rfoot -34.6886 -3.72853
rtoes 13.5723
lfemur -20.3183 2.66827 -16.5467
ltibia 27.8231
lfoot -5.46815 0.800962
ltoes 9.71538
2732
root -22.4049 23.1126 -9.72822 318.275 80.5874 -52.6944
lowerback 33.8864 1.18085 -1.80615
upperback 10.7476 2.42479 4.7239
thorax -5.74099 1.47083 5.0416
lowerneck 0.248567 -5.17597 -4.7039
upperneck 27.2643 -5.63424 0.078112
head 8.59494 -2.75129 0.479754
rclavicle 2.28602e-015 -1.86982e-014
rhumerus 67.8703 7.7832 -81.0244
rradius 57.8835
rwrist 13.181
rhand 12.2424 -23.2006
rfingers 7.12502
rthumb 37.2499 -49.2001
lclavicle 2.28602e-015 -1.86982e-014
lhumerus 27.8339 -16.2635 68.5855
lradius 62.5416
lwrist -29.5941
lhand -35.9384 -23.7609
lfingers 7.12502
lthumb -9.05032 6.0249
rfemur -61.4015 4.23327 28.0954
rtibia 88.3874
rfoot -35.1189 -3.06332
rtoes 16.4248
lfemur -19.8764 3.23431 -16.5031
ltibia 28.5586
lfoot -7.08622 1.51959
ltoes 10.1626
2733
root -22.4486 23.0466 -9.73178 322.929 79.6411 -47.7171
lowerback 33.9949 1.89321 -3.20294
upperback 10.8539 2.86035 4.83013
thorax -5.76563 1.65221 5.74791
lowerneck 0.067217 -4.80145 -5.33149
upperneck 27.2425 -5.13455 0.328717
head 8.63575 -2.56125 0.702731
rclavicle -5.41688e-015 -1.2921e-015
rhumerus 68.4325 7.94485 -80.3052
rradius 57.8271
rwrist 13.7532
rhand 14.3493 -23.3854
rfingers 7.12502
rthumb 39.2388 -48.8366
lclavicle -5.41688e-015 -1.2921e-015
lhumerus 27.603 -15.5955 68.177
lradius 63.1115
lwrist -29.5535
lhand -36.1047 -23.0168
lfingers 7.12502
lthumb -9.21079 6.76205
rfemur -61.5264 5.65464 27.9973
rtibia 88.904
rfoot -35.3274 -2.37148
rtoes 18.3729
lfemur -19.8216 4.31338 -16.6343
ltibia 29.3761
lfoot -8.26602 1.98193
ltoes 3.86523
2734
root -22.4902 22.9772 -9.82093 314.768 80.4684 -56.6754
lowerback 33.2868 0.300571 -1.71557
upperback 10.5867 1.30768 4.53891
thorax -5.57191 0.928736 5.19614
lowerneck -0.108628 -3.86788 -6.02171
upperneck 27.407 -3.82345 0.467016
head 8.70616 -2.01095 0.962154
rclavicle 6.75868e-015 6.71892e-014
rhumerus 68.9473 9.258 -81.4142
rradius 57.4817
rwrist 13.0428
rhand 12.9132 -23.9711
rfingers 7.12502
rthumb 37.8839 -49.8018
lclavicle 6.75868e-015 6.71892e-014
lhumerus 27.1605 -14.2877 66.6778
lradius 63.4704
lwrist -29.356
lhand -36.4407 -22.7838
lfingers 7.12502
lthumb -9.53505 6.9805
rfemur -63.0831 3.86305 28.2179
rtibia 89.5393
rfoot -34.9192 -4.40256
rtoes 11.2102
lfemur -21.365 2.95407 -16.3659
ltibia 30.1177
lfoot -9.35728 1.47112
ltoes 8.3145
